<?xml version="1.0" encoding="UTF-8"?>
<svg xmlns="http://www.w3.org/2000/svg" xmlns:xlink="http://www.w3.org/1999/xlink" viewBox="0 0 253.03 245.93">
  <defs>
    <style>
      .cls-1 {
        fill: url(#linear-gradient);
      }

      .cls-2 {
        fill: url(#linear-gradient-2);
      }

      .cls-3 {
        fill: url(#linear-gradient-3);
      }
    </style>
    <linearGradient id="linear-gradient" x1="272.93" y1="-3761.47" x2="45.07" y2="-3983.04" gradientTransform="translate(0 -3773.48) scale(1 -1)" gradientUnits="userSpaceOnUse">
      <stop offset="0" stop-color="#fd9d00"/>
      <stop offset="1" stop-color="#9243ff"/>
    </linearGradient>
    <linearGradient id="linear-gradient-2" x1="266.36" y1="-3760.46" x2="41.25" y2="-3979.36" xlink:href="#linear-gradient"/>
    <linearGradient id="linear-gradient-3" x1="238.8" y1="-3726.34" x2="10.85" y2="-3948.01" xlink:href="#linear-gradient"/>
  </defs>
  <g id="Layer_1" data-name="Layer 1"/>
  <g id="Layer_2" data-name="Layer 2">
    <g id="Layer_2-2" data-name="Layer 2">
      <g>
        <path class="cls-1" d="M61.47,128.35c7.68-7.19,4.31-10.72,7.27-17.52,20.13,3.78,34.87,6.59,58.7,15.4,26.05-51.99,45.05-80.14,82.88-120.45,1.08-1.15,2.52-1.99,4.09-2.14,5.44-.49,8.07,6.45,5.06,10.91-28.84,42.59-46.82,86.18-67.44,166.14-.48,1.85-2.65,2.67-4.22,1.59-30.64-21.08-49.63-34.72-86.35-53.93Z"/>
        <path class="cls-2" d="M157.51,16.82c1.9-6.52-2.23-13.26-8.9-14.52C124.13-2.35,98.8,.07,75.84,9.42c-26.82,10.92-48.74,30.61-62.04,55.71C.51,90.24-3.33,119.2,2.93,147.1c6.27,27.9,22.25,52.99,45.23,71.01,22.98,18.02,51.54,27.85,80.8,27.82,29.26-.03,57.43-9.93,79.69-28.01,22.26-18.07,37.25-43.21,42.4-71.11,4.4-23.81,1.4-48.39-8.45-70.66-2.76-6.25-10.18-8.92-16.23-5.73h0c-5.46,2.87-7.71,9.46-5.25,15.12,7.79,17.94,10.13,37.68,6.6,56.81-4.19,22.68-16.36,43.1-34.46,57.79-18.09,14.69-40.98,22.73-64.76,22.76-23.78,.03-46.99-7.96-65.66-22.61-18.68-14.65-31.67-35.04-36.76-57.71-5.09-22.67-1.97-46.21,8.83-66.61,10.8-20.4,28.62-36.4,50.42-45.28,18.62-7.58,39.15-9.56,59.01-5.81,5.81,1.1,11.5-2.38,13.16-8.06h0Z"/>
        <path class="cls-3" d="M69.17,129.54c5.15-1.38,8.21-6.66,6.83-11.8-1.38-5.13-6.67-8.18-11.81-6.8-5.15,1.38-8.21,6.66-6.83,11.8,1.38,5.13,6.67,8.18,11.81,6.8Z"/>
      </g>
    </g>
  </g>
</svg>