<?xml version="1.0" encoding="UTF-8"?>
<svg xmlns="http://www.w3.org/2000/svg" xmlns:xlink="http://www.w3.org/1999/xlink" viewBox="0 0 1030.03 257.7">
  <defs>
    <style>
      .cls-1 {
        fill: url(#linear-gradient);
      }

      .cls-2 {
        fill: #0c0b28;
      }

      .cls-3 {
        fill: url(#linear-gradient-2);
      }

      .cls-4 {
        fill: url(#linear-gradient-3);
      }
    </style>
    <linearGradient id="linear-gradient" x1="272.93" y1="-2070.87" x2="45.07" y2="-2292.44" gradientTransform="translate(0 -2071.88) scale(1 -1)" gradientUnits="userSpaceOnUse">
      <stop offset="0" stop-color="#fd9d00"/>
      <stop offset="1" stop-color="#9243ff"/>
    </linearGradient>
    <linearGradient id="linear-gradient-2" x1="266.36" y1="-2069.86" x2="41.25" y2="-2288.76" xlink:href="#linear-gradient"/>
    <linearGradient id="linear-gradient-3" x1="238.8" y1="-2035.74" x2="10.85" y2="-2257.41" xlink:href="#linear-gradient"/>
  </defs>
  <g id="Layer_1" data-name="Layer 1"/>
  <g id="Layer_2" data-name="Layer 2">
    <g id="Layer_2-2" data-name="Layer 2">
      <g>
        <path class="cls-2" d="M613.9,124.57c-3.36,2.38-7.15,4.09-11.15,5.02-4.55,1.14-9.23,1.7-13.92,1.68-12.62,0-22.39-3.22-29.29-9.67-6.91-6.45-10.36-15.92-10.37-28.4V47.02h-16.3V23.35h16.3V6.72l30.8-6.72V23.35h26.44v23.68h-26.44v45.77c0,4.48,1.15,7.93,3.44,10.36,2.3,2.43,5.56,3.65,9.78,3.65,4.47,.13,8.85-1.26,12.43-3.95l8.29,21.71Z"/>
        <path class="cls-2" d="M732.59,23.56v106.14h-29.19v-12.62c-4.02,4.56-9.01,8.16-14.6,10.55-5.8,2.46-12.05,3.71-18.35,3.65-13.94,0-24.99-4.01-33.14-12.04-8.15-8.03-12.23-19.93-12.23-35.71V23.56h30.77v55.44c0,17.1,7.16,25.65,21.5,25.64,7.37,0,13.29-2.4,17.76-7.2,4.47-4.8,6.71-11.91,6.71-21.35V23.56h30.77Z"/>
        <path class="cls-2" d="M829.62,124.57c-3.35,2.38-7.14,4.09-11.14,5.02-4.55,1.14-9.23,1.7-13.92,1.68-12.62,0-22.39-3.22-29.3-9.67-6.91-6.45-10.36-15.92-10.36-28.4V47.02h-16.33V23.35h16.38V6.72l30.77-6.72V23.35h26.45v23.68h-26.45v45.77c0,4.48,1.16,7.93,3.46,10.36,2.31,2.43,5.57,3.65,9.78,3.65,4.47,.13,8.86-1.26,12.43-3.95l8.22,21.71Z"/>
        <path class="cls-2" d="M877.81,23.56h-30.79v106.15h30.79V23.56Z"/>
        <path class="cls-2" d="M984.67,79.35c-3.91-4.23-8.88-7.33-14.4-8.98-7-1.97-14.12-3.51-21.3-4.63-7.77-1.19-13.42-2.44-16.97-3.75-3.55-1.31-5.33-3.61-5.33-6.9,0-2.9,1.64-5.26,4.93-7.11,3.29-1.85,8.22-2.76,14.79-2.76,10.71-.09,21.25,2.63,30.58,7.89l10.26-21.87c-5.77-3.22-12-5.52-18.48-6.8-7.35-1.63-14.86-2.46-22.39-2.47-10.15,0-18.93,1.45-26.34,4.35-7.41,2.9-13.06,6.94-16.94,12.13-3.86,5.14-5.91,11.43-5.82,17.86,0,8.02,2.07,14.2,6.21,18.54,4.02,4.26,9.09,7.39,14.7,9.07,7.06,2.02,14.24,3.53,21.51,4.54,7.35,.93,12.81,2.05,16.37,3.36,3.56,1.31,5.33,3.49,5.33,6.52,0,6.46-6.52,9.68-19.56,9.67-6.68-.04-13.32-1-19.73-2.86-5.68-1.54-11.13-3.84-16.2-6.85l-10.3,22.08c5.98,3.49,12.46,6.05,19.2,7.61,8.44,2.18,17.13,3.27,25.85,3.26,10.39,0,19.36-1.42,26.93-4.25,7.57-2.83,13.32-6.82,17.26-11.96,3.91-5.01,6-11.2,5.93-17.55,.02-7.75-2.01-13.79-6.09-18.14Z"/>
        <path class="cls-2" d="M410.03,93.41l-16.95-37.34-20.46-45.07-33.7,7.61-16.95,37.37-17.02,37.6-16.36,36.11h31.94l10.14-23.76c17.17,6.08,35.89,6.16,53.11,.22l10.1,23.54h32.61l-16.47-36.28Zm-52.47-11.08c-5.67,.02-11.28-1.15-16.47-3.41l16.13-34.94,16.54,35.05c-5.12,2.2-10.64,3.32-16.22,3.3h.01Z"/>
        <path class="cls-2" d="M518.07,79.35c-3.91-4.23-8.88-7.33-14.4-8.98-7.01-1.97-14.12-3.51-21.31-4.63-7.76-1.19-13.42-2.44-16.97-3.75-3.55-1.31-5.34-3.6-5.36-6.87,0-2.9,1.64-5.26,4.93-7.11,3.29-1.85,8.22-2.76,14.79-2.76,10.71-.09,21.25,2.63,30.58,7.89l10.26-21.9c-5.76-3.22-12-5.52-18.48-6.8-7.35-1.63-14.86-2.46-22.39-2.47-10.14,0-18.92,1.45-26.34,4.35-7.41,2.9-13.05,6.94-16.9,12.13-3.86,5.15-5.9,11.43-5.8,17.86,0,8.02,2.07,14.2,6.22,18.54,4.02,4.26,9.09,7.39,14.7,9.07,7.04,2.01,14.22,3.53,21.48,4.54,7.36,.93,12.82,2.05,16.37,3.36,3.55,1.31,5.33,3.49,5.33,6.52,0,6.46-6.52,9.68-19.57,9.67-6.68-.04-13.31-1-19.73-2.86-4.9-1.45-9.71-3.22-14.38-5.29l-7.84,23.29c4.88,1.91,9.86,3.54,14.92,4.88,8.44,2.18,17.13,3.27,25.85,3.26,10.39,0,19.36-1.42,26.93-4.25,7.56-2.83,13.32-6.82,17.26-11.96,3.91-5.01,6.01-11.2,5.94-17.56,0-7.78-2.03-13.84-6.1-18.19Z"/>
        <path class="cls-2" d="M320.72,256.93h9.51v-81.7h31.6v-8.22h-72.71v8.22h31.6v81.7Z"/>
        <path class="cls-2" d="M382.07,202.59v-13.23h-8.74v67.57h9.12v-34.43c0-15.93,8.61-24.92,22.74-24.92,.64,0,1.41,.13,2.18,.13v-8.86c-12.46,0-21.07,4.75-25.31,13.75Z"/>
        <path class="cls-2" d="M447.4,188.84c-10.66,0-20.68,3.34-27.49,9.12l4.11,6.81c5.52-4.88,13.75-7.97,22.48-7.97,12.59,0,19.14,6.29,19.14,17.86v4.11h-21.45c-19.4,0-26.08,8.74-26.08,19.14,0,11.69,9.38,19.66,24.66,19.66,11.18,0,19.14-4.24,23.25-11.18v10.53h8.74v-41.88c0-17.47-9.89-26.21-27.36-26.21Zm-3.21,61.53c-10.79,0-17.09-4.88-17.09-12.72,0-6.94,4.24-12.08,17.34-12.08h21.19v11.05c-3.59,8.86-11.17,13.75-21.45,13.75Z"/>
        <path class="cls-2" d="M527.8,257.57c11.43,0,21.07-4.62,26.46-13.36l-6.81-4.62c-4.63,6.81-11.82,9.89-19.65,9.89-14.77,0-25.56-10.41-25.56-26.34s10.79-26.34,25.56-26.34c7.83,0,15.03,3.21,19.65,10.02l6.81-4.62c-5.39-8.86-15.03-13.36-26.46-13.36-20.17,0-34.82,14.13-34.82,34.3s14.65,34.43,34.82,34.43Z"/>
        <path class="cls-2" d="M623.46,256.93h11.18l-31.6-39.95,28.91-27.62h-11.3l-40.34,36.87v-64.62h-9.12v95.32h9.12v-19.27l15.93-14.65,27.23,33.91Z"/>
        <path class="cls-2" d="M675.05,257.7c23,0,33.53-11.3,33.53-24.54,0-32.76-55.37-17.86-55.37-42.52,0-8.99,7.32-16.32,23.76-16.32,7.97,0,16.96,2.44,24.67,7.45l3.21-7.58c-7.19-5.01-17.73-7.96-27.88-7.96-22.87,0-33.14,11.43-33.14,24.67,0,33.27,55.37,18.11,55.37,42.78,0,8.86-7.32,15.93-24.16,15.93-11.82,0-23.25-4.62-29.67-10.92l-3.72,7.32c6.68,6.94,19.91,11.69,33.4,11.69Z"/>
        <path class="cls-2" d="M811.64,188.84c-12.2,0-21.84,5.52-26.72,14.26-4.11-9.51-12.85-14.26-24.02-14.26s-20.04,4.75-24.8,12.85v-12.33h-8.74v67.57h9.12v-35.46c0-15.42,8.86-24.41,22.61-24.41,12.33,0,19.53,7.32,19.53,21.58v38.28h9.12v-35.46c0-15.42,8.74-24.41,22.61-24.41,12.2,0,19.4,7.32,19.4,21.58v38.28h9.12v-39.18c0-19.4-10.79-28.9-27.23-28.9Z"/>
        <path class="cls-2" d="M887.25,188.84c-10.66,0-20.68,3.34-27.49,9.12l4.11,6.81c5.52-4.88,13.74-7.97,22.48-7.97,12.59,0,19.14,6.29,19.14,17.86v4.11h-21.45c-19.4,0-26.08,8.74-26.08,19.14,0,11.69,9.38,19.66,24.67,19.66,11.18,0,19.14-4.24,23.25-11.18v10.53h8.74v-41.88c0-17.47-9.9-26.21-27.36-26.21Zm-3.21,61.53c-10.79,0-17.09-4.88-17.09-12.72,0-6.94,4.24-12.08,17.34-12.08h21.2v11.05c-3.6,8.86-11.18,13.75-21.45,13.75Z"/>
        <path class="cls-2" d="M948.12,202.59v-13.23h-8.73v67.57h9.12v-34.43c0-15.93,8.61-24.92,22.74-24.92,.64,0,1.41,.13,2.19,.13v-8.86c-12.46,0-21.07,4.75-25.31,13.75Z"/>
        <path class="cls-2" d="M1025.2,246.27c-2.57,2.31-6.3,3.47-10.02,3.47-7.58,0-11.69-4.37-11.69-12.33v-40.34h20.56v-7.71h-20.56v-14.77h-9.12v14.77h-12.08v7.71h12.08v40.85c0,12.46,7.07,19.66,19.78,19.66,5.27,0,10.66-1.54,14.26-4.75l-3.21-6.55Z"/>
        <path class="cls-2" d="M1015.57,131.27c7.98,0,14.46-6.47,14.46-14.46s-6.47-14.46-14.46-14.46-14.46,6.47-14.46,14.46,6.47,14.46,14.46,14.46Z"/>
        <g>
          <path class="cls-1" d="M61.47,139.35c7.68-7.19,4.31-10.72,7.27-17.52,20.13,3.78,34.87,6.59,58.7,15.4,26.05-51.99,45.05-80.14,82.88-120.45,1.08-1.15,2.52-1.99,4.09-2.14,5.44-.49,8.07,6.45,5.06,10.91-28.84,42.59-46.82,86.18-67.44,166.14-.48,1.85-2.65,2.67-4.22,1.59-30.64-21.08-49.63-34.72-86.35-53.93Z"/>
          <path class="cls-3" d="M157.51,27.82c1.9-6.52-2.23-13.26-8.9-14.52-24.49-4.65-49.81-2.23-72.77,7.12-26.82,10.92-48.74,30.61-62.04,55.71C.51,101.24-3.33,130.2,2.93,158.1c6.27,27.9,22.25,52.99,45.23,71.01,22.98,18.02,51.54,27.85,80.8,27.82,29.26-.03,57.43-9.93,79.69-28.01,22.26-18.07,37.25-43.21,42.4-71.11,4.4-23.81,1.4-48.39-8.45-70.66-2.76-6.25-10.18-8.92-16.23-5.73h0c-5.46,2.87-7.71,9.46-5.25,15.12,7.79,17.94,10.13,37.68,6.6,56.81-4.19,22.68-16.36,43.1-34.46,57.79-18.09,14.69-40.98,22.73-64.76,22.76-23.78,.03-46.99-7.96-65.66-22.61-18.68-14.65-31.67-35.04-36.76-57.71-5.09-22.67-1.97-46.21,8.83-66.61,10.8-20.4,28.62-36.4,50.42-45.28,18.62-7.58,39.15-9.56,59.01-5.81,5.81,1.1,11.5-2.38,13.16-8.06h0Z"/>
          <path class="cls-4" d="M69.17,140.54c5.15-1.38,8.21-6.66,6.83-11.8-1.38-5.13-6.67-8.18-11.81-6.8-5.15,1.38-8.21,6.66-6.83,11.8,1.38,5.13,6.67,8.18,11.81,6.8Z"/>
        </g>
      </g>
    </g>
  </g>
</svg>