<svg xmlns="http://www.w3.org/2000/svg" viewBox="0 0 609.23 274.09"><defs><style>.cls-1{fill:#231f20;}.cls-2,.cls-5{fill:#00b0db;}.cls-3,.cls-6{fill:#f37037;}.cls-4,.cls-7{fill:#7bc142;}.cls-10,.cls-11,.cls-12,.cls-13,.cls-14,.cls-15,.cls-5,.cls-6,.cls-7,.cls-8,.cls-9{fill-rule:evenodd;}.cls-8{fill:#ef463e;}.cls-9{fill:#e272ac;}.cls-10{fill:#33471c;}.cls-11{fill:#005996;}.cls-12{fill:#f7cca8;}.cls-13{fill:#879ec3;}.cls-14{fill:#f3e5c3;}.cls-15{fill:#fff200;}</style></defs><title>AstutisLogo</title><g id="Layer_2" data-name="Layer 2"><g id="Layer_1-2" data-name="Layer 1"><path class="cls-1" d="M88.07,107.69h26.32l29.84,113.67H125l-6.26-23.13H83L76.8,221.91H57.32m43.4-99.11L85.91,181.38h29.5Z"/><polyline class="cls-1" points="196.76 111.81 260.5 111.81 260.5 129.13 237.71 129.13 237.71 226.84 220.43 226.84 220.43 128.78 196.76 128.78"/><polyline class="cls-1" points="331.21 111.81 394.94 111.81 394.94 129.13 372.16 129.13 372.16 226.84 354.88 226.84 354.88 128.78 331.21 128.78"/><rect class="cls-1" x="394.88" y="129.11" width="17.32" height="98.3"/><path class="cls-1" d="M260.45,129.2h17.18v57.44s-.11,22.78,17.32,22.78c19.36,0,18.68-21.64,18.68-21.64V128.9h17.66v59.68s1.35,38.15-37.48,38.15c-35,0-33.6-40.88-33.6-40.88"/><path class="cls-1" d="M196.74,148.16V128.9A54.67,54.67,0,0,0,171.47,123c-15,0-29.84,7.85-29.84,30.4S161,180.73,167,183.11s19.24,4.56,18.22,16.06-14.12,11.19-19.36,10.59c-11.05-1.24-21.54-7.85-21.54-7.85v19.47s12.54,6.18,23.58,6.26c15.38.12,33.6-5.82,34.18-30.29s-19-28.59-28.37-32.34-15.15-5.82-15.15-14.46,9.23-11.49,22.33-8.67a53.85,53.85,0,0,1,15.81,6.28"/><path class="cls-1" d="M471.54,151.67V132.86s-9.57-5.78-24.26-5.78-29.18,7.68-29.18,29.71S437,183.5,442.93,185.85s18.82,4.44,17.82,15.68-13.8,10.93-18.94,10.35c-10.8-1.22-21-7.68-21-7.68v19s12.25,6,23,6.12c15,.11,32.84-5.68,33.4-29.6s-18.6-27.93-27.72-31.6-14.8-5.68-14.8-14.13,9-11.22,21.82-8.46a47.13,47.13,0,0,1,15,6.11"/><path class="cls-2" d="M3.84,248.76v8.42h8.88v-8.42h3.84v21H12.72v-9.26H3.84v9.26H0v-21Z"/><path class="cls-2" d="M33.49,260.46H25.57v6.17h8.85v3.15H21.73v-21H34v3.15H25.57v5.43h7.92Z"/><path class="cls-2" d="M42.78,263.83,41,269.78H37l6.74-21h4.9l6.83,21H51.35l-1.9-5.95Zm6-2.9-1.65-5.18c-.4-1.28-.75-2.71-1.06-3.93H46c-.31,1.22-.63,2.68-1,3.93l-1.62,5.18Z"/><path class="cls-2" d="M59.17,248.76H63v17.81h8.63v3.21H59.17Z"/><path class="cls-2" d="M76.32,252h-6v-3.22H86.21V252H80.15v17.8H76.32Z"/><path class="cls-2" d="M93.28,248.76v8.42h8.89v-8.42H106v21h-3.83v-9.26H93.28v9.26H89.44v-21Z"/><path class="cls-1" d="M121,242.91v31.18h-2.09V242.91Z"/><path class="cls-3" d="M133.77,265.6a10.6,10.6,0,0,0,5.08,1.35c2.47,0,3.84-1.16,3.84-2.87s-1.06-2.53-3.74-3.5c-3.47-1.25-5.68-3.09-5.68-6.11,0-3.43,2.87-6.05,7.42-6.05a11.17,11.17,0,0,1,5.06,1.06l-.94,3.09a8.83,8.83,0,0,0-4.18-1c-2.43,0-3.49,1.31-3.49,2.53,0,1.62,1.21,2.37,4,3.46,3.65,1.37,5.43,3.21,5.43,6.24,0,3.36-2.56,6.33-8,6.33a12.51,12.51,0,0,1-5.67-1.34Z"/><path class="cls-3" d="M155,263.83l-1.81,5.95h-4l6.74-21h4.9l6.83,21h-4.12l-1.9-5.95Zm6-2.9-1.65-5.18c-.41-1.28-.75-2.71-1.06-3.93h-.06c-.32,1.22-.63,2.68-1,3.93l-1.62,5.18Z"/><path class="cls-3" d="M171.43,248.76h12.13v3.15h-8.29v5.8H183v3.15h-7.73v8.92h-3.84Z"/><path class="cls-3" d="M199.83,260.46h-7.92v6.17h8.86v3.15H188.08v-21H200.3v3.15h-8.39v5.43h7.92Z"/><path class="cls-3" d="M209.25,252h-6v-3.22h15.87V252h-6v17.8h-3.83Z"/><path class="cls-3" d="M227.64,269.78V261L221,248.76h4.36l2.53,5.4c.72,1.56,1.24,2.74,1.81,4.18h.06c.53-1.34,1.12-2.65,1.84-4.18l2.53-5.4h4.33l-7,12.17v8.85Z"/><path class="cls-1" d="M251.36,242.91v31.18h-2.09V242.91Z"/><path class="cls-4" d="M275.56,260.46h-7.92v6.17h8.85v3.15H263.8v-21H276v3.15h-8.39v5.43h7.92Z"/><path class="cls-4" d="M280.63,269.78v-21H285l5.43,9a57.71,57.71,0,0,1,3.58,7h.07c-.25-2.8-.35-5.52-.35-8.73v-7.33h3.56v21h-4l-5.49-9.26a69.31,69.31,0,0,1-3.78-7.24l-.09,0c.16,2.71.19,5.49.19,8.95v7.51Z"/><path class="cls-4" d="M307.29,269.78l-6.8-21h4.18l2.87,9.55c.81,2.65,1.5,5.11,2.06,7.67h.06c.56-2.5,1.31-5.05,2.15-7.61l3.06-9.61H319l-7.26,21Z"/><path class="cls-4" d="M325.84,248.76v21H322v-21Z"/><path class="cls-4" d="M331,249a36.53,36.53,0,0,1,5.8-.43c3,0,5.09.49,6.49,1.68a5.33,5.33,0,0,1,1.81,4.21,5.6,5.6,0,0,1-3.81,5.27v.1c1.5.56,2.41,2,2.94,4.05a40.79,40.79,0,0,0,1.65,5.86h-4a30.33,30.33,0,0,1-1.41-5c-.59-2.74-1.59-3.61-3.77-3.68h-1.93v8.64H331Zm3.81,9.3h2.27c2.59,0,4.21-1.37,4.21-3.46,0-2.31-1.62-3.37-4.11-3.37a11.39,11.39,0,0,0-2.37.18Z"/><path class="cls-4" d="M368.18,259.06c0,7-4.27,11.07-10.07,11.07s-9.67-4.53-9.67-10.7c0-6.46,4.05-11,10-11C364.56,248.42,368.18,253.07,368.18,259.06Zm-15.69.31c0,4.27,2.15,7.7,5.83,7.7s5.8-3.46,5.8-7.86c0-4-2-7.73-5.8-7.73S352.49,255,352.49,259.37Z"/><path class="cls-4" d="M372.26,269.78v-21h4.36l5.43,9a57.71,57.71,0,0,1,3.58,7h.07c-.25-2.8-.34-5.52-.34-8.73v-7.33h3.55v21h-4l-5.49-9.26a67.36,67.36,0,0,1-3.77-7.24l-.1,0c.16,2.71.19,5.49.19,8.95v7.51Z"/><path class="cls-4" d="M411.86,261.21c-.13-2.72-.29-6-.25-8.86h-.1c-.68,2.59-1.56,5.43-2.49,8.08l-3.06,9.1h-3l-2.81-9c-.81-2.68-1.56-5.55-2.12-8.2H398c-.1,2.77-.22,6.11-.38,9l-.46,8.45h-3.59l1.4-21H400l2.74,8.45c.75,2.47,1.4,5,1.93,7.3h.1c.56-2.27,1.28-4.86,2.09-7.33l2.9-8.42h5l1.21,21h-3.74Z"/><path class="cls-4" d="M432.43,260.46h-7.92v6.17h8.85v3.15H420.67v-21H432.9v3.15h-8.39v5.43h7.92Z"/><path class="cls-4" d="M437.51,269.78v-21h4.36l5.43,9a57.71,57.71,0,0,1,3.58,7H451c-.25-2.8-.34-5.52-.34-8.73v-7.33h3.55v21h-4l-5.49-9.26a67.36,67.36,0,0,1-3.77-7.24l-.1,0c.16,2.71.19,5.49.19,8.95v7.51Z"/><path class="cls-4" d="M463.38,252h-6v-3.22h15.88V252h-6v17.8h-3.84Z"/><path class="cls-5" d="M466.82,47.5a19.7,19.7,0,1,1,1.32,27.82,19.7,19.7,0,0,1-1.32-27.82"/><path class="cls-6" d="M568,82.13a17.44,17.44,0,1,1,1.17,24.63A17.43,17.43,0,0,1,568,82.13"/><path class="cls-7" d="M509.9,4.23a12.92,12.92,0,1,1,.87,18.25,12.93,12.93,0,0,1-.87-18.25"/><path class="cls-8" d="M514.38,100.32a11.66,11.66,0,1,1,.78,16.47,11.67,11.67,0,0,1-.78-16.47"/><path class="cls-8" d="M558.67,31.61a15.18,15.18,0,1,1,1,21.44,15.19,15.19,0,0,1-1-21.44"/><path class="cls-9" d="M498.21,124.55a11.91,11.91,0,1,1,.8,16.83,11.92,11.92,0,0,1-.8-16.83"/><path class="cls-10" d="M545.86,3.89a10.91,10.91,0,1,1,.73,15.42,10.91,10.91,0,0,1-.73-15.42"/><path class="cls-11" d="M483.81,18.42a9.66,9.66,0,1,1,.65,13.64,9.65,9.65,0,0,1-.65-13.64"/><path class="cls-12" d="M556,63.11A8.4,8.4,0,1,1,556.56,75,8.41,8.41,0,0,1,556,63.11"/><path class="cls-13" d="M478.62,150.3a10.41,10.41,0,1,1,.7,14.71,10.42,10.42,0,0,1-.7-14.71"/><path class="cls-13" d="M489.3,91.59a9.36,9.36,0,1,1,.63,13.22,9.35,9.35,0,0,1-.63-13.22"/><path class="cls-9" d="M506.52,32.51A9.57,9.57,0,1,1,507.17,46a9.57,9.57,0,0,1-.65-13.51"/><path class="cls-14" d="M511,155.23a12.17,12.17,0,1,1,.81,17.18,12.16,12.16,0,0,1-.81-17.18"/><path class="cls-7" d="M544.68,99.49a8.25,8.25,0,1,1,.55,11.65,8.26,8.26,0,0,1-.55-11.65"/><path class="cls-5" d="M588.5,54.47a11.92,11.92,0,1,1,.8,16.84,11.92,11.92,0,0,1-.8-16.84"/><path class="cls-6" d="M534.79,26.09a7.24,7.24,0,1,1,.48,10.23,7.25,7.25,0,0,1-.48-10.23"/><path class="cls-10" d="M530.71,125.25a12.92,12.92,0,1,1,.87,18.25,12.92,12.92,0,0,1-.87-18.25"/><path class="cls-15" d="M504.39,74.79a8,8,0,1,1,.54,11.33,8,8,0,0,1-.54-11.33"/></g></g></svg>