<svg xmlns="http://www.w3.org/2000/svg" viewBox="0 0 255 266"><defs><style>.cls-1{fill:#f2f2f2;}.cls-1,.cls-2,.cls-3,.cls-4,.cls-5{stroke:#0071bc;}.cls-1,.cls-2,.cls-3{stroke-miterlimit:10;}.cls-1,.cls-2,.cls-3,.cls-4,.cls-5,.cls-6,.cls-7{stroke-width:6px;}.cls-2,.cls-4{fill:#fff;}.cls-3,.cls-5,.cls-6,.cls-7{fill:none;}.cls-4,.cls-5,.cls-6,.cls-7{stroke-linejoin:round;}.cls-6{stroke:red;}.cls-7{stroke:#8cc63f;}.cls-8{fill:#8cc63f;}</style></defs><title>calendar-exam-nobg</title><g id="Layer_2" data-name="Layer 2"><g id="Layer_2-2" data-name="Layer 2"><rect class="cls-1" x="3" y="25" width="249" height="238" rx="15"/><rect class="cls-2" x="40" y="3" width="35" height="43" rx="11.33"/><rect class="cls-2" x="179" y="3" width="35" height="43" rx="11.33"/><line class="cls-3" x1="3" y1="77" x2="252" y2="77"/><rect class="cls-4" x="40" y="116" width="174" height="111"/><line class="cls-5" x1="128" y1="116" x2="128" y2="227"/><line class="cls-5" x1="172" y1="116" x2="172" y2="227"/><line class="cls-5" x1="84" y1="116" x2="84" y2="227"/><line class="cls-5" x1="40" y1="152" x2="214" y2="152"/><line class="cls-5" x1="40" y1="189" x2="214" y2="189"/><circle class="cls-6" cx="150" cy="208" r="31"/><line class="cls-7" x1="61" y1="208" x2="138.9" y2="208"/><polygon class="cls-8" points="133.67 214.89 136.6 208 133.67 201.11 150 208 133.67 214.89"/></g></g></svg>