<svg xmlns="http://www.w3.org/2000/svg" viewBox="0 0 574 309"><defs><style>.cls-1{fill:#29abe2;}.cls-2{fill:#f2f2f2;}.cls-2,.cls-3,.cls-4,.cls-5,.cls-6{stroke:#0071bc;}.cls-2,.cls-3,.cls-4{stroke-miterlimit:10;}.cls-2,.cls-3,.cls-4,.cls-5,.cls-6,.cls-7,.cls-8{stroke-width:6px;}.cls-3,.cls-5{fill:#fff;}.cls-4,.cls-6,.cls-7,.cls-8{fill:none;}.cls-5,.cls-6,.cls-7,.cls-8{stroke-linejoin:round;}.cls-7{stroke:red;}.cls-8{stroke:#8cc63f;}.cls-9{fill:#8cc63f;}</style></defs><title>calendar-exam</title><g id="Layer_2" data-name="Layer 2"><g id="Layer_2-2" data-name="Layer 2"><rect class="cls-1" width="574" height="309"/><rect class="cls-2" x="163" y="44" width="249" height="238" rx="15"/><rect class="cls-3" x="200" y="22" width="35" height="43" rx="11.33"/><rect class="cls-3" x="339" y="22" width="35" height="43" rx="11.33"/><line class="cls-4" x1="163" y1="96" x2="412" y2="96"/><rect class="cls-5" x="200" y="135" width="174" height="111"/><line class="cls-6" x1="288" y1="135" x2="288" y2="246"/><line class="cls-6" x1="332" y1="135" x2="332" y2="246"/><line class="cls-6" x1="244" y1="135" x2="244" y2="246"/><line class="cls-6" x1="200" y1="171" x2="374" y2="171"/><line class="cls-6" x1="200" y1="208" x2="374" y2="208"/><circle class="cls-7" cx="310" cy="227" r="31"/><line class="cls-8" x1="221" y1="227" x2="298.9" y2="227"/><polygon class="cls-9" points="293.67 233.89 296.6 227 293.67 220.11 310 227 293.67 233.89"/></g></g></svg>