<svg xmlns="http://www.w3.org/2000/svg" viewBox="0 0 574 309"><defs><style>.cls-1{fill:#19a9d0;}.cls-2{fill:#fff;}</style></defs><title>ExamDateBG</title><g id="Layer_2" data-name="Layer 2"><g id="Layer_2-2" data-name="Layer 2"><rect class="cls-1" width="574" height="309"/></g><g id="Layer_3" data-name="Layer 3"><g id="Date"><rect class="cls-2" x="215.96" y="126.73" width="21.66" height="21.66" rx="2.37"/><rect class="cls-2" x="245.44" y="126.73" width="21.66" height="21.66" rx="2.37"/><rect class="cls-2" x="274.92" y="126.73" width="21.66" height="21.66" rx="2.37"/><rect class="cls-2" x="304.41" y="126.73" width="21.66" height="21.66" rx="2.37"/><rect class="cls-2" x="333.89" y="126.73" width="21.66" height="21.66" rx="2.37"/><rect class="cls-2" x="215.96" y="156.21" width="21.66" height="21.66" rx="2.37"/><rect class="cls-2" x="245.44" y="156.21" width="21.66" height="21.66" rx="2.37"/><rect class="cls-2" x="274.92" y="156.21" width="21.66" height="21.66" rx="2.37"/><rect class="cls-2" x="215.96" y="185.69" width="21.66" height="21.66" rx="2.37"/><rect class="cls-2" x="245.44" y="185.69" width="21.66" height="21.66" rx="2.37"/><rect class="cls-2" x="274.92" y="185.69" width="21.66" height="21.66" rx="2.37"/><path class="cls-2" d="M262,101.72a6.23,6.23,0,0,0,.42,1,5.9,5.9,0,0,0,1.36,1.66,4.35,4.35,0,0,0,.43.32,5.43,5.43,0,0,0,3.12,1h.85a5.53,5.53,0,0,0,4.89-2.93,6.24,6.24,0,0,0,.52-1.28,6.44,6.44,0,0,0,.16-1.39V97.14h0V86.62a6,6,0,0,0-.11-1.12,2.12,2.12,0,0,0-.14-.55,5.86,5.86,0,0,0-1-1.9,4.48,4.48,0,0,0-.36-.4A5.54,5.54,0,0,0,268.13,81h-.86a5.51,5.51,0,0,0-3.94,1.65,4.48,4.48,0,0,0-.36.4,5.76,5.76,0,0,0-1,1.9,3.39,3.39,0,0,0-.13.55,5.26,5.26,0,0,0-.12,1.12V97.14h0v3.51A5.12,5.12,0,0,0,262,101.72Z"/><path class="cls-2" d="M361,96.64h-6.66v3.53a13.38,13.38,0,0,1-13.43,13.32h-.86a13.38,13.38,0,0,1-13.39-13.32V96.64h-8.42v3.53a13.39,13.39,0,0,1-13.42,13.32H304a13.38,13.38,0,0,1-13.39-13.32V96.64h-9v3.53a13.39,13.39,0,0,1-13.41,13.32h-.87a13.38,13.38,0,0,1-13.4-13.32V96.64h-9v3.53a13.38,13.38,0,0,1-13.42,13.32h-.87a13.39,13.39,0,0,1-13.39-13.32V96.64h-6.63a10.85,10.85,0,0,0-10.82,10.86V212.17A10.84,10.84,0,0,0,210.53,223H323a3.87,3.87,0,0,0,3-1.39l45-54a4,4,0,0,0,.86-2.47h0V107.48A10.85,10.85,0,0,0,361,96.64ZM326.67,208.32V168.85h32.92ZM364,161H323.31a3.86,3.86,0,0,0-3.86,3.86v50.29H210.63a3.13,3.13,0,0,1-3.1-3.15V118.91H364Z"/><path class="cls-2" d="M299.36,103.16a6.5,6.5,0,0,0,.69.86,5.51,5.51,0,0,0,3.93,1.65h.86a5.53,5.53,0,0,0,2.16-.44,5.63,5.63,0,0,0,3.42-5.17v-3h0V86.61a4.68,4.68,0,0,0-.11-1.12,5.44,5.44,0,0,0-1.17-2.44,3.42,3.42,0,0,0-.36-.4,5.5,5.5,0,0,0-4-1.65H304A5.53,5.53,0,0,0,300,82.65c-.12.12-.24.26-.36.4a5.82,5.82,0,0,0-1,1.9,4.26,4.26,0,0,0-.14.54,5.25,5.25,0,0,0-.11,1.12v10.5h0V100a5.32,5.32,0,0,0,.11,1.12A5.57,5.57,0,0,0,299.36,103.16Z"/><path class="cls-2" d="M225.94,103.19a5.53,5.53,0,0,0,4.63,2.48H232a5.65,5.65,0,0,0,5-5.59V96.52h0V86.61a6.07,6.07,0,0,0-.11-1.12,5.36,5.36,0,0,0-.14-.54,5.73,5.73,0,0,0-1-1.9c-.12-.14-.24-.27-.37-.4a5.53,5.53,0,0,0-4-1.65h-.85a5.57,5.57,0,0,0-3.92,1.65l-.36.4a5.76,5.76,0,0,0-1,1.9c0,.18-.09.35-.14.54a7.08,7.08,0,0,0-.11,1.12v9.91h0v3.54A5.66,5.66,0,0,0,225.94,103.19Z"/><path class="cls-2" d="M335.48,103.19a5.51,5.51,0,0,0,3,2.23,5.41,5.41,0,0,0,1.65.25h1.43a6.9,6.9,0,0,0,1.08-.22,6.33,6.33,0,0,0,1-.44,5.66,5.66,0,0,0,2.93-4.93V96.52h0V86.61a7.1,7.1,0,0,0-.12-1.12,5.36,5.36,0,0,0-.14-.54,5.55,5.55,0,0,0-1-1.9c-.12-.14-.24-.27-.37-.4a5.52,5.52,0,0,0-4-1.65h-.86a5.51,5.51,0,0,0-3.93,1.65l-.36.4a5.76,5.76,0,0,0-1,1.9c-.05.18-.09.35-.14.54a6.07,6.07,0,0,0-.11,1.12v9.91h0v3.54A5.56,5.56,0,0,0,335.48,103.19Z"/></g></g></g></svg>