<svg xmlns="http://www.w3.org/2000/svg" viewBox="0 0 317.51 262"><defs><style>.cls-1{fill:#fff;}</style></defs><title>ExamDateNoBg</title><g id="Layer_2" data-name="Layer 2"><g id="Layer_3" data-name="Layer 3"><g id="Date"><rect class="cls-1" x="29.97" y="84.37" width="39.97" height="39.97" rx="4.38"/><rect class="cls-1" x="84.37" y="84.37" width="39.97" height="39.97" rx="4.38"/><rect class="cls-1" x="138.77" y="84.37" width="39.97" height="39.97" rx="4.38"/><rect class="cls-1" x="193.17" y="84.37" width="39.97" height="39.97" rx="4.38"/><rect class="cls-1" x="247.57" y="84.37" width="39.97" height="39.97" rx="4.38"/><rect class="cls-1" x="29.97" y="138.77" width="39.97" height="39.97" rx="4.38"/><rect class="cls-1" x="84.37" y="138.77" width="39.97" height="39.97" rx="4.38"/><rect class="cls-1" x="138.77" y="138.77" width="39.97" height="39.97" rx="4.38"/><rect class="cls-1" x="29.97" y="193.17" width="39.97" height="39.97" rx="4.38"/><rect class="cls-1" x="84.37" y="193.17" width="39.97" height="39.97" rx="4.38"/><rect class="cls-1" x="138.77" y="193.17" width="39.97" height="39.97" rx="4.38"/><path class="cls-1" d="M114.87,38.22a11.11,11.11,0,0,0,.77,1.85,10.68,10.68,0,0,0,2.52,3.07,7.73,7.73,0,0,0,.79.59,10.11,10.11,0,0,0,5.75,1.79h1.58a10.23,10.23,0,0,0,9-5.4,11.21,11.21,0,0,0,.95-2.36,11.81,11.81,0,0,0,.3-2.58v-5.4h0V10.37a10.23,10.23,0,0,0-.2-2.07,3.67,3.67,0,0,0-.26-1,10.72,10.72,0,0,0-1.89-3.5,9.45,9.45,0,0,0-.67-.75,10.23,10.23,0,0,0-7.3-3h-1.58a10.22,10.22,0,0,0-7.27,3q-.34.36-.66.75a10,10,0,0,0-1.9,3.5,7.09,7.09,0,0,0-.25,1,9.58,9.58,0,0,0-.22,2.07V29.78h0v6.47A9.53,9.53,0,0,0,114.87,38.22Z"/><path class="cls-1" d="M297.6,28.86H285.31v6.5A24.7,24.7,0,0,1,260.55,60H259a24.69,24.69,0,0,1-24.7-24.59v-6.5H218.7v6.5A24.7,24.7,0,0,1,193.94,60h-1.59a24.69,24.69,0,0,1-24.71-24.59v-6.5H151v6.5A24.7,24.7,0,0,1,126.23,60h-1.59A24.7,24.7,0,0,1,99.92,35.36v-6.5H83.26v6.5A24.7,24.7,0,0,1,58.49,60H56.9A24.7,24.7,0,0,1,32.19,35.36v-6.5H20a20,20,0,0,0-20,20V242a20,20,0,0,0,20,20H227.39a7.1,7.1,0,0,0,5.47-2.56l83.06-99.63a7.24,7.24,0,0,0,1.59-4.57h0V48.85A20,20,0,0,0,297.6,28.86ZM234.25,234.92V162.08H295Zm68.83-87.27h-75a7.16,7.16,0,0,0-7.13,7.14v92.78H20.14a5.77,5.77,0,0,1-5.71-5.81V69.94H303.08Z"/><path class="cls-1" d="M183.87,40.89a10.74,10.74,0,0,0,1.26,1.59,10.18,10.18,0,0,0,7.26,3H194a10.32,10.32,0,0,0,10.3-10.35V29.72h0V10.35a10.1,10.1,0,0,0-2.37-6.57,7.75,7.75,0,0,0-.66-.74,10.21,10.21,0,0,0-7.32-3h-1.58a10.19,10.19,0,0,0-7.26,3,9.4,9.4,0,0,0-.66.74,10.44,10.44,0,0,0-1.89,3.5,8.64,8.64,0,0,0-.26,1,9.56,9.56,0,0,0-.2,2.07V29.72h0v5.4a9.56,9.56,0,0,0,.2,2.07A10,10,0,0,0,183.87,40.89Z"/><path class="cls-1" d="M48.4,40.94a10.24,10.24,0,0,0,5.47,4.12,10.62,10.62,0,0,0,3.07.46h2.64a10.41,10.41,0,0,0,9.25-10.31V28.64h0V10.36a9.57,9.57,0,0,0-.21-2.07,6.65,6.65,0,0,0-.25-1,10.15,10.15,0,0,0-1.88-3.5c-.22-.26-.44-.51-.68-.75a10.23,10.23,0,0,0-7.35-3H56.87a10.28,10.28,0,0,0-7.22,3L49,3.79a10.52,10.52,0,0,0-1.89,3.5c-.1.33-.18.65-.26,1a11,11,0,0,0-.2,2.07V28.64h0v6.52A10.2,10.2,0,0,0,48.4,40.94Z"/><path class="cls-1" d="M250.49,40.94A10.24,10.24,0,0,0,256,45.06a10.43,10.43,0,0,0,3,.46h2.63a11.18,11.18,0,0,0,2-.42,10.38,10.38,0,0,0,7.25-9.89V28.64h0V10.36a9.58,9.58,0,0,0-.22-2.07,6.65,6.65,0,0,0-.25-1,10.32,10.32,0,0,0-1.88-3.5c-.22-.26-.44-.51-.68-.75a10.23,10.23,0,0,0-7.31-3H259a10.22,10.22,0,0,0-7.27,3l-.66.75a10.34,10.34,0,0,0-1.89,3.5c-.1.33-.18.65-.26,1a11,11,0,0,0-.2,2.07V28.64h0v6.52A10.27,10.27,0,0,0,250.49,40.94Z"/></g></g></g></svg>