<svg xmlns="http://www.w3.org/2000/svg" viewBox="0 0 200.23 164.83"><defs><style>.cls-1{fill:#fff;}</style></defs><title>ExamDate</title><g id="Layer_2" data-name="Layer 2"><g id="Date"><rect class="cls-1" x="18.75" y="53.07" width="25.31" height="25.31" rx="2.76"/><rect class="cls-1" x="53.01" y="53.07" width="25.31" height="25.31" rx="2.76"/><rect class="cls-1" x="87.26" y="53.07" width="25.31" height="25.31" rx="2.76"/><rect class="cls-1" x="121.52" y="53.07" width="25.31" height="25.31" rx="2.76"/><rect class="cls-1" x="155.77" y="53.07" width="25.31" height="25.31" rx="2.76"/><rect class="cls-1" x="18.75" y="87.32" width="25.31" height="25.31" rx="2.76"/><rect class="cls-1" x="53.01" y="87.32" width="25.31" height="25.31" rx="2.76"/><rect class="cls-1" x="87.26" y="87.32" width="25.31" height="25.31" rx="2.76"/><rect class="cls-1" x="18.75" y="121.58" width="25.31" height="25.31" rx="2.76"/><rect class="cls-1" x="53.01" y="121.58" width="25.31" height="25.31" rx="2.76"/><rect class="cls-1" x="87.26" y="121.58" width="25.31" height="25.31" rx="2.76"/><path class="cls-1" d="M72.07,24a7,7,0,0,0,.49,1.16,6.76,6.76,0,0,0,1.59,1.93,5.86,5.86,0,0,0,.5.37,6.42,6.42,0,0,0,3.64,1.12h1A6.47,6.47,0,0,0,85,25.19a7,7,0,0,0,.5-1.16,6.49,6.49,0,0,0,.29-1.93V18.7h0V6.51a6.23,6.23,0,0,0-.13-1.3c0-.22-.1-.42-.16-.63a6.63,6.63,0,0,0-1.2-2.2,6.14,6.14,0,0,0-.42-.47A6.49,6.49,0,0,0,79.26,0h-1a6.49,6.49,0,0,0-4.6,1.91,6.14,6.14,0,0,0-.42.47,6.29,6.29,0,0,0-1.2,2.2,4.47,4.47,0,0,0-.16.63,6.24,6.24,0,0,0-.14,1.3V18.7h0v3.4c0,.22,0,.44,0,.66A6,6,0,0,0,72.07,24Z"/><path class="cls-1" d="M187.64,18h-7.5V22.1a15.53,15.53,0,0,1-15.52,15.51h-1A15.53,15.53,0,0,1,148.14,22.1V18H137.45V22.1a15.53,15.53,0,0,1-15.51,15.51h-1A15.53,15.53,0,0,1,105.46,22.1V18H94.77V22.1A15.53,15.53,0,0,1,79.26,37.61h-1A15.53,15.53,0,0,1,62.77,22.1V18H52.09V22.1A15.53,15.53,0,0,1,36.57,37.61h-1A15.53,15.53,0,0,1,20.09,22.1V18h-7.5A12.61,12.61,0,0,0,0,30.61V152.24a12.61,12.61,0,0,0,12.59,12.59H143.37a4.49,4.49,0,0,0,3.45-1.61l52.37-62.75a4.54,4.54,0,0,0,1-2.88h0v-67A12.61,12.61,0,0,0,187.64,18ZM147.86,148V102.08h38.3Zm43.4-54.86H143.37a4.49,4.49,0,0,0-4.48,4.48v58.27H12.59A3.62,3.62,0,0,1,9,152.24V44.2H191.26Z"/><path class="cls-1" d="M115.57,25.73a7.5,7.5,0,0,0,.8,1,6.49,6.49,0,0,0,4.6,1.91h1a6.46,6.46,0,0,0,2.53-.51,6.54,6.54,0,0,0,4-6V18.7h0V6.51a6.23,6.23,0,0,0-.13-1.3A6.33,6.33,0,0,0,127,2.38a6.14,6.14,0,0,0-.42-.47A6.49,6.49,0,0,0,121.94,0h-1a6.49,6.49,0,0,0-4.6,1.91,6.14,6.14,0,0,0-.42.47,6.63,6.63,0,0,0-1.2,2.2,6.45,6.45,0,0,0-.16.63,6.23,6.23,0,0,0-.13,1.3V18.7h0v3.4a6.23,6.23,0,0,0,.13,1.3A6.35,6.35,0,0,0,115.57,25.73Z"/><path class="cls-1" d="M30.21,25.73a6.44,6.44,0,0,0,3.46,2.59,6.5,6.5,0,0,0,1.94.29h1c.23,0,.45,0,.67,0a6.55,6.55,0,0,0,5.85-6.48V18h0V6.51A6.24,6.24,0,0,0,43,5.21a4.47,4.47,0,0,0-.16-.63,6.44,6.44,0,0,0-1.19-2.2c-.14-.16-.28-.32-.43-.47A6.49,6.49,0,0,0,36.57,0h-1A6.52,6.52,0,0,0,31,1.91l-.42.47a6.63,6.63,0,0,0-1.2,2.2c-.06.21-.11.41-.16.63a7,7,0,0,0-.13,1.3V18h0V22.1A6.42,6.42,0,0,0,30.21,25.73Z"/><path class="cls-1" d="M158.26,25.73a6.44,6.44,0,0,0,3.46,2.59,6.49,6.49,0,0,0,1.93.29h1c.23,0,.45,0,.67,0a7.41,7.41,0,0,0,1.26-.26,6.75,6.75,0,0,0,1.17-.5,6.54,6.54,0,0,0,3.42-5.72V18h0V6.51a6.24,6.24,0,0,0-.14-1.3,4.47,4.47,0,0,0-.16-.63,6.44,6.44,0,0,0-1.19-2.2c-.14-.16-.28-.32-.43-.47A6.49,6.49,0,0,0,164.62,0h-1a6.49,6.49,0,0,0-4.6,1.91l-.42.47a6.63,6.63,0,0,0-1.2,2.2c-.06.21-.11.41-.16.63a7,7,0,0,0-.13,1.3V18h0V22.1A6.42,6.42,0,0,0,158.26,25.73Z"/></g></g></svg>