<svg xmlns="http://www.w3.org/2000/svg" viewBox="0 0 165.43 165"><defs><style>.cls-1{fill:#fff;}</style></defs><title>Time</title><g id="Layer_2" data-name="Layer 2"><g id="Schedule"><path class="cls-1" d="M124,10.68a4.49,4.49,0,0,0-6.14,1.65L106.56,31.82a4.5,4.5,0,0,0,7.8,4.5l11.25-19.49A4.5,4.5,0,0,0,124,10.68Z"/><path class="cls-1" d="M130.93,59a4.48,4.48,0,0,0,2.25-.61l19.49-11.25a4.5,4.5,0,0,0-4.5-7.8L128.68,50.64a4.5,4.5,0,0,0,2.25,8.4Z"/><path class="cls-1" d="M160.93,78H138.42a4.5,4.5,0,0,0,0,9h22.51a4.5,4.5,0,0,0,0-9Z"/><path class="cls-1" d="M152.67,117.82l-19.49-11.26a4.5,4.5,0,1,0-4.5,7.8l19.49,11.25a4.5,4.5,0,1,0,4.5-7.79Z"/><path class="cls-1" d="M82.5,134.35a51.86,51.86,0,1,1,0-103.71V0H74.32a4.63,4.63,0,0,0-4.5,3.57l-3.77,16a64.89,64.89,0,0,0-16.4,6.8l-14-8.67a4.64,4.64,0,0,0-5.72.66L18.38,29.94a4.64,4.64,0,0,0-.66,5.72l8.67,14a64.74,64.74,0,0,0-6.8,16.4l-16,3.77A4.63,4.63,0,0,0,0,74.32V90.67a4.63,4.63,0,0,0,3.57,4.51l16,3.77a64.82,64.82,0,0,0,6.8,16.39l-8.67,14a4.63,4.63,0,0,0,.66,5.71l11.56,11.56a4.63,4.63,0,0,0,5.72.66l14-8.66a64.89,64.89,0,0,0,16.4,6.8l3.77,16a4.63,4.63,0,0,0,4.5,3.58H90.67a4.63,4.63,0,0,0,4.51-3.58l3.77-16a64.69,64.69,0,0,0,16-6.61l-6.58-11.4A51.51,51.51,0,0,1,82.5,134.35Z"/><path class="cls-1" d="M81.32,71.45a4.5,4.5,0,0,0-7.8,4.5l1.3,2.26a8.79,8.79,0,0,0,7.56,13.08l13.9,24.08a4.5,4.5,0,0,0,7.8-4.5L90.17,86.79a8.79,8.79,0,0,0-7.55-13.08Z"/></g></g></svg>