<svg xmlns="http://www.w3.org/2000/svg" viewBox="0 0 574 309"><defs><style>.cls-1{fill:#0b7467;}.cls-2{fill:#fff;}</style></defs><title>TimeBG</title><g id="Layer_2" data-name="Layer 2"><g id="Layer_3" data-name="Layer 3"><rect class="cls-1" width="574" height="309"/><g id="Schedule"><path class="cls-2" d="M330.83,76.26A4.74,4.74,0,0,0,324.36,78h0L312.44,98.56a4.75,4.75,0,0,0,8.23,4.74h0l11.86-20.55A4.75,4.75,0,0,0,330.83,76.26Z"/><path class="cls-2" d="M337.92,127.22a4.72,4.72,0,0,0,2.38-.64l20.55-11.87a4.75,4.75,0,1,0-4.75-8.22l-20.55,11.92a4.74,4.74,0,0,0,2.37,8.85Z"/><path class="cls-2" d="M369.63,147.32H346.41a4.82,4.82,0,0,0-4.9,4.56,4.68,4.68,0,0,0,4.68,4.8h23.22a4.82,4.82,0,0,0,4.9-4.56A4.68,4.68,0,0,0,369.63,147.32Z"/><path class="cls-2" d="M361.07,189.25l-20.56-11.87a4.75,4.75,0,0,0-4.74,8.23l20.55,11.86a4.75,4.75,0,0,0,5-8.08Z"/><path class="cls-2" d="M287.06,206.69a54.7,54.7,0,0,1-1.52-109.38h1.52V65h-8.62a4.88,4.88,0,0,0-4.75,3.76l-4,16.88a68.68,68.68,0,0,0-17.29,7.17l-14.76-9.14a4.9,4.9,0,0,0-6,.69L219.44,96.58a4.88,4.88,0,0,0-.69,6l9.14,14.76a68.59,68.59,0,0,0-7.17,17.3l-16.87,4a4.89,4.89,0,0,0-3.79,4.74v17.24a4.89,4.89,0,0,0,3.77,4.76l16.87,4a68.52,68.52,0,0,0,7.17,17.29l-9.14,14.76a4.87,4.87,0,0,0,.69,6l12.19,12.2a4.9,4.9,0,0,0,6,.69l14.76-9.13a68.68,68.68,0,0,0,17.29,7.17l4,16.87a4.88,4.88,0,0,0,4.75,3.78h17.25a4.87,4.87,0,0,0,4.75-3.78l4-16.87a68.19,68.19,0,0,0,16.87-7l-6.94-12A54.44,54.44,0,0,1,287.06,206.69Z"/><path class="cls-2" d="M285.82,140.35a4.75,4.75,0,1,0-8.22,4.75l1.37,2.38a9.27,9.27,0,0,0,8,13.8l14.66,25.39a4.75,4.75,0,1,0,8.23-4.75l-14.67-25.39a9.26,9.26,0,0,0-8-13.79Z"/></g></g></g></svg>