<svg xmlns="http://www.w3.org/2000/svg" viewBox="0 0 260.37 260"><defs><style>.cls-1{fill:#fff;}</style></defs><title>TimeNoBG</title><g id="Layer_2" data-name="Layer 2"><g id="Layer_3" data-name="Layer 3"><g id="Schedule"><path class="cls-1" d="M195.41,16.83a7.07,7.07,0,0,0-9.67,2.58v0L167.92,50.14a7.09,7.09,0,1,0,12.29,7.09h0l17.73-30.71A7.09,7.09,0,0,0,195.41,16.83Z"/><path class="cls-1" d="M206,93a7.14,7.14,0,0,0,3.55-1l30.71-17.72A7.1,7.1,0,0,0,233.17,62L202.45,79.8A7.1,7.1,0,0,0,206,93Z"/><path class="cls-1" d="M253.37,123H218.68a7.22,7.22,0,0,0-7.32,6.82,7,7,0,0,0,7,7.18h34.69a7.22,7.22,0,0,0,7.32-6.82A7,7,0,0,0,253.37,123Z"/><path class="cls-1" d="M240.59,185.67l-30.72-17.75a7.09,7.09,0,1,0-7.09,12.29l30.71,17.73a7.09,7.09,0,1,0,7.45-12.07Z"/><path class="cls-1" d="M130,211.72a81.73,81.73,0,0,1-2.27-163.44H130V0H117.11A7.29,7.29,0,0,0,110,5.63l-5.94,25.21A102.05,102.05,0,0,0,78.24,41.56L56.18,27.89a7.33,7.33,0,0,0-9,1L29,47.18a7.32,7.32,0,0,0-1,9L41.58,78.26A102,102,0,0,0,30.87,104.1L5.66,110A7.3,7.3,0,0,0,0,117.12v25.76A7.31,7.31,0,0,0,5.63,150l25.21,5.94a102.11,102.11,0,0,0,10.71,25.83L27.89,203.82a7.31,7.31,0,0,0,1,9L47.15,231a7.29,7.29,0,0,0,9,1l22.06-13.65a102.17,102.17,0,0,0,25.84,10.71L110,254.36a7.3,7.3,0,0,0,7.09,5.64h25.78a7.3,7.3,0,0,0,7.11-5.64l5.94-25.22a101.92,101.92,0,0,0,25.21-10.41l-10.37-18A81.14,81.14,0,0,1,130,211.72Z"/><path class="cls-1" d="M128.15,112.59a7.1,7.1,0,1,0-12.29,7.1l2,3.56a13.84,13.84,0,0,0,11.91,20.61l21.9,37.95a7.1,7.1,0,1,0,12.29-7.1l-21.92-37.94a13.84,13.84,0,0,0-11.89-20.61Z"/></g></g></g></svg>