<svg xmlns="http://www.w3.org/2000/svg" viewBox="0 0 1000 200.7"><defs><style>.cls-1{fill:#e56324;}.cls-2{fill:#19a9d0;}.cls-3{fill:#bb4a94;}.cls-4{fill:#ce4e1b;}.cls-5{fill:#88b526;}.cls-6{fill:#a33380;}.cls-7{fill:#0b8ead;}.cls-8{fill:#719314;}</style></defs><title>Asset 1</title><g id="Layer_2" data-name="Layer 2"><g id="Layer_1-2" data-name="Layer 1"><path class="cls-1" d="M1.22,101.09H59.36l-1.22,9.35H33.34l-11.66,88H11.93l11.65-88H0Z"/><path class="cls-1" d="M66.82,135.38c5-6.91,12.2-10.85,19.65-10.85a19.6,19.6,0,0,1,8.27,1.9l-4.48,8.4a15.44,15.44,0,0,0-5.69-1.22c-4.74,0-9.62,2.45-13.28,6.78-5.42,6.51-7.32,15.59-9,27.51l-4.2,30.5H49.06l9.76-72H68Z"/><path class="cls-1" d="M164.94,126.43h9.63l-9.63,72h-9.35L157,187.56c-8.27,8.4-17.76,12.74-28.6,12.74-19.65,0-33.61-14-33.61-33.89,0-23.85,19.78-41.88,41.2-41.88,12.6,0,21.14,5.29,27.38,15.59Zm-3.39,32c0-15.45-10.84-25.35-25.48-25.35-17.34,0-32.12,14.1-32.12,33.21,0,15.72,10.71,25.48,25.48,25.48C148.41,191.76,161.55,177.12,161.55,158.42Z"/><path class="cls-1" d="M258.46,185.25c-9.35,10.3-20.33,15.05-35,15.05-23,0-36.18-14-36.18-34.16,0-23.31,19.11-41.61,43.37-41.61,14.36,0,26,6.37,32,17.35l-7.72,4.48c-5.29-8.41-13.69-12.75-24.4-12.75-20.06,0-34,14.24-34,32,0,15.45,10,26.16,26.57,26.16,11,0,21.95-4.88,27.78-11.93Z"/><path class="cls-1" d="M287.74,98.65h9.08L289.09,153l34.7-26.57h14.36l-41.74,32.12,36.87,39.85H320.94l-33.2-35.78-4.88,35.78h-9.22Z"/><path d="M352.11,170.62c5.56,8.54,11.53,13.14,18.44,13.14,6.37,0,11.11-4.74,11.11-10.57,0-5.56-3.52-10-9.62-16.4-11.25-11.79-20.47-20.73-20.47-33.07,0-12.87,10.17-25.07,26-25.07,11.25,0,21.15,5.42,28.87,16l-13.28,11.79c-5.15-6.5-9.89-10.84-15.31-10.84-4.75,0-8.14,3.52-8.14,7.32,0,4.34,3.93,9.21,11.12,16.67,10,10.57,19.38,19.65,19.38,33.61,0,15.59-12.06,27.51-29.68,27.51-13.29,0-24-6.1-32.4-18.7Z"/><path d="M438.72,134.16c6.37-6.37,13.28-9.63,21.41-9.63,9.49,0,16.81,4.34,20.33,13.15,6.78-8.67,16-13.15,25.48-13.15,11.52,0,21.15,7.73,21.15,22.1a66.16,66.16,0,0,1-.82,8.81l-5.55,43H503.1l4.88-37a80.59,80.59,0,0,0,.95-9.76c0-6.91-3.53-10.84-9.76-10.84-4.07,0-8,2.17-11.25,5.42-6.1,6.1-7.46,13.82-8.95,24.94l-3.52,27.24H457.83L463,159.23a60.92,60.92,0,0,0,.68-8.13c0-6.1-3.93-10.3-9.63-10.3-4.06,0-8.81,2.17-12.06,5.56-4.61,4.87-6.5,11.65-7.72,21l-4.07,31H412.56l9.49-72h17.62Z"/><path d="M593.9,190.68c-6.64,6.23-12.47,9.62-21.95,9.62-18.84,0-31.18-16-31.18-35,0-22.09,17.76-40.8,38.63-40.8a24.61,24.61,0,0,1,21.42,11.93l1.35-10h17.62l-9.35,72H593Zm4.88-30.91c0-10.84-6.91-19-18-19-12.34,0-22.5,10-22.5,24.94,0,11.38,7.18,18.84,17.75,18.84C590.52,184.58,598.78,172,598.78,159.77Z"/><path d="M649.2,136.19c4.61-7.59,10.17-11.66,17.08-11.66a11.31,11.31,0,0,1,5,1.22l-6.37,16a16.78,16.78,0,0,0-3-.27c-8.68,0-13,10.3-15.45,29.81L643.1,198.4H625.35l9.35-72h15.85Z"/><path d="M686.34,99.6h17.48l-3.66,26.83h11.25l-2.17,15.18H698.13L690.4,198.4H672.78l7.73-56.79h-8.68l2-15.18h8.67Z"/><polygon class="cls-2" points="742.2 82.19 813.14 123.71 1000 0 813.14 200.7 742.2 82.19"/><polygon class="cls-3" points="813.14 123.71 813.14 200.7 790.1 162.21 813.14 123.71"/><polygon class="cls-4" points="865.31 89.17 911.83 94.7 858.25 152.25 865.31 89.17"/><polygon class="cls-5" points="1000 0 911.83 94.7 865.31 89.17 1000 0"/><polygon class="cls-6" points="813.14 123.71 858.25 152.25 813.14 200.7 813.14 123.71"/><polygon class="cls-1" points="865.31 89.17 813.14 123.71 858.25 152.25 865.31 89.17"/><polygon class="cls-7" points="769.81 128.32 813.14 123.71 790.1 162.21 769.81 128.32"/><polygon class="cls-8" points="911.83 94.7 925.73 49.17 1000 0 911.83 94.7"/><path d="M963.7,57h13.44l-.49,3.86H972L969.59,79h-4.11l2.4-18.17h-4.7Z"/><path d="M981,57h3.74l3.74,15.34L996.13,57h3.56l.31,22h-3.87L996,65.78,989.41,79h-3.16l-3.34-13.84L979.38,79h-4Z"/></g></g></svg>