<svg id="Layer_1" data-name="Layer 1" xmlns="http://www.w3.org/2000/svg" viewBox="0 0 776.05 200.33"><defs><style>.cls-1{fill:#0c0b28;}.cls-2{fill:#9243ff;}</style></defs><path class="cls-1" d="M341.55,152.6a29.18,29.18,0,0,1-10.26,4.62,51.83,51.83,0,0,1-12.8,1.55q-17.42,0-26.95-8.9T282,123.74V81.26H267V59.48H282V44.18L310.33,38V59.48h24.32V81.26H310.33v42.11q0,6.18,3.17,9.53t9,3.36a18.19,18.19,0,0,0,11.43-3.63Z"/><path class="cls-1" d="M450.74,59.67v97.64H423.88V145.7a37.64,37.64,0,0,1-13.43,9.71,42.22,42.22,0,0,1-16.88,3.36q-19.24,0-30.49-11.08t-11.25-32.85V59.67h28.31v51q0,23.6,19.78,23.59,10.17,0,16.34-6.62T422.43,108V59.67Z"/><path class="cls-1" d="M540,152.6a29,29,0,0,1-10.25,4.62,51.83,51.83,0,0,1-12.8,1.55q-17.42,0-26.95-8.9t-9.53-26.13V81.26H465.44V59.48h15.07V44.18L508.82,38V59.48h24.33V81.26H508.82v42.11q0,6.18,3.18,9.53t9,3.36a18.21,18.21,0,0,0,11.44-3.63Z"/><rect class="cls-1" x="556.01" y="59.67" width="28.32" height="97.65"/><circle class="cls-2" cx="711.07" cy="145.46" r="13.3"/><path class="cls-1" d="M682.64,111a29.55,29.55,0,0,0-13.25-8.26,167.66,167.66,0,0,0-19.6-4.26q-10.71-1.64-15.61-3.45t-4.9-6.35c0-2.67,1.51-4.84,4.54-6.54s7.56-2.54,13.61-2.54a56.34,56.34,0,0,1,28.13,7.26L685,66.74a58,58,0,0,0-17-6.26,95.25,95.25,0,0,0-20.6-2.27q-14,0-24.23,4T607.59,73.37a26.71,26.71,0,0,0-5.35,16.43q0,11.07,5.71,17.06a30.68,30.68,0,0,0,13.52,8.34,144.4,144.4,0,0,0,19.79,4.18q10.15,1.28,15.06,3.09t4.9,6q0,8.91-18,8.9a66.39,66.39,0,0,1-18.15-2.63,60,60,0,0,1-14.9-6.3l-9.47,20.31a63.42,63.42,0,0,0,17.66,7,94.69,94.69,0,0,0,23.78,3q14.33,0,24.77-3.91t15.88-11a25.78,25.78,0,0,0,5.45-16.15Q688.27,117,682.64,111Z"/><path class="cls-1" d="M154,123.93,138.41,89.58,119.59,48.12l-31,7L73,89.5,57.34,124.09h0L42.29,157.31H71.67L81,135.45a74,74,0,0,0,48.86.2l9.29,21.66h30Zm-48.27-10.19a37.58,37.58,0,0,1-15.15-3.14l14.84-32.14,15.22,32.24A37.57,37.57,0,0,1,105.72,113.74Z"/><path class="cls-1" d="M253.39,111a29.55,29.55,0,0,0-13.25-8.26,167.66,167.66,0,0,0-19.6-4.26q-10.71-1.64-15.61-3.45T200,88.71c0-2.67,1.51-4.84,4.54-6.54s7.56-2.54,13.61-2.54a56.34,56.34,0,0,1,28.13,7.26l9.44-20.15a58,58,0,0,0-17-6.26,95.25,95.25,0,0,0-20.6-2.27q-14,0-24.23,4T178.34,73.37A26.74,26.74,0,0,0,173,89.8q0,11.07,5.72,17.06a30.68,30.68,0,0,0,13.52,8.34A144.4,144.4,0,0,0,212,119.38q10.16,1.28,15.06,3.09t4.9,6q0,8.91-18,8.9a66.34,66.34,0,0,1-18.15-2.63,108.49,108.49,0,0,1-13.23-4.87l-7.21,21.43a126.4,126.4,0,0,0,13.73,4.49,94.69,94.69,0,0,0,23.78,3q14.33,0,24.77-3.91t15.88-11A25.78,25.78,0,0,0,259,127.73Q259,117,253.39,111Z"/></svg>