<svg xmlns="http://www.w3.org/2000/svg" viewBox="0 0 253.03 245.93"><defs><style>.cls-1{fill:#fff;}</style></defs><g id="Layer_2" data-name="Layer 2"><g id="Layer_2-2" data-name="Layer 2"><path class="cls-1" d="M61.47,128.35c7.68-7.19,4.32-10.71,7.28-17.52,20.13,3.78,34.87,6.59,58.7,15.4,26-52,45.05-80.13,82.88-120.44a6.54,6.54,0,0,1,4.09-2.14c5.44-.49,8.08,6.45,5.06,10.91C190.64,57.15,172.66,100.73,152,180.69a2.75,2.75,0,0,1-4.22,1.59C117.18,161.2,98.19,147.56,61.47,128.35Z"/><path class="cls-1" d="M157.51,16.82a11.51,11.51,0,0,0-8.9-14.52A129.19,129.19,0,0,0,75.84,9.42a122,122,0,0,0-62,55.71,119.12,119.12,0,0,0-10.87,82,125.41,125.41,0,0,0,45.24,71A130.93,130.93,0,0,0,129,245.93a126.6,126.6,0,0,0,79.69-28,119.39,119.39,0,0,0,34-141.77,11.77,11.77,0,0,0-16.23-5.74h0a11.75,11.75,0,0,0-5.25,15.12,97.05,97.05,0,0,1-27.86,114.6,102.87,102.87,0,0,1-64.76,22.76,106.43,106.43,0,0,1-65.67-22.6,101.94,101.94,0,0,1-36.75-57.71A96.75,96.75,0,0,1,34.92,76,99.07,99.07,0,0,1,85.34,30.69a105,105,0,0,1,59-5.81,11.48,11.48,0,0,0,13.16-8.06Z"/><path class="cls-1" d="M69.17,129.54a9.63,9.63,0,1,0-11.81-6.8A9.64,9.64,0,0,0,69.17,129.54Z"/></g></g></svg>